<svg version="1.1" baseProfile="tiny" id="Layer_1" xmlns="http://www.w3.org/2000/svg" xmlns:xlink="http://www.w3.org/1999/xlink"
	 x="0px" y="0px" viewBox="0 0 100 21.7" xml:space="preserve">
<g>
	<g>
		<path fill="#9BAB2E" d="M15.4,12c-0.4-0.5-1-0.9-1.5-1.3c-0.6-0.4-1.2-0.7-1.8-1.1c-0.6-0.3-1.2-0.6-1.8-0.9
			C9.8,8.4,9.3,8.2,8.8,7.9C8.4,7.6,8,7.4,7.7,7.1C7.5,6.8,7.3,6.6,7.3,6.2c0-0.3,0.1-0.6,0.2-0.9C7.7,5,7.8,4.8,8.1,4.5
			C8.3,4.3,8.6,4.1,9,4c0.3-0.1,0.7-0.2,1.1-0.2c0.2,0,0.3,0,0.3,0.1c0.1,0.1,0.1,0.1,0.1,0.2c0,0.1,0,0.2,0,0.3c0,0.1,0,0.2,0,0.3
			c0,0.2,0.1,0.4,0.3,0.6c0.2,0.2,0.5,0.3,0.9,0.3c0.2,0,0.5,0,0.7-0.1c0.2-0.1,0.4-0.2,0.6-0.4c0.2-0.2,0.3-0.3,0.4-0.6
			c0.1-0.2,0.1-0.5,0.1-0.7c0-0.2-0.1-0.5-0.2-0.8c-0.1-0.3-0.4-0.5-0.7-0.7c-0.3-0.2-0.7-0.4-1.2-0.6c-0.5-0.2-1.1-0.2-1.8-0.3H9.4
			c-0.3,0-0.7,0-1.1,0.1C7.9,1.6,7.4,1.8,7,1.9C6.5,2.1,6,2.3,5.6,2.6c-0.5,0.3-0.9,0.6-1.2,1C4,3.9,3.7,4.4,3.5,5
			C3.3,5.5,3.2,6.1,3.2,6.8c0,0.7,0.1,1.3,0.4,1.9c0.3,0.6,0.6,1.1,1.1,1.5c0.4,0.5,0.9,0.9,1.5,1.3c0.6,0.4,1.1,0.7,1.7,1.1
			c0.6,0.3,1.2,0.7,1.7,1s1.1,0.6,1.5,1c0.4,0.3,0.8,0.7,1.1,1c0.3,0.4,0.4,0.8,0.4,1.2c0,0.4-0.1,0.7-0.2,1
			c-0.1,0.3-0.3,0.5-0.5,0.7c-0.2,0.2-0.4,0.4-0.6,0.5c-0.2,0.1-0.5,0.2-0.7,0.3c-0.2,0.1-0.5,0.1-0.7,0.2c-0.2,0-0.4,0-0.6,0
			c-1,0-1.9-0.1-2.6-0.4c-0.8-0.2-1.4-0.6-1.9-1c-0.5-0.4-0.9-0.9-1.2-1.4c-0.3-0.5-0.4-1.1-0.4-1.7c0-0.2,0-0.3,0.1-0.5
			c0-0.1,0.1-0.3,0.1-0.4c0-0.1,0.1-0.3,0.1-0.4c0-0.1,0.1-0.3,0.1-0.4c0-0.2,0-0.4-0.1-0.6c-0.1-0.2-0.2-0.3-0.3-0.5
			C3,12.1,2.9,12,2.7,12c-0.2-0.1-0.4-0.1-0.6-0.1c-0.4,0-0.8,0.1-1,0.4c-0.3,0.3-0.5,0.6-0.6,0.9s-0.3,0.8-0.3,1.2
			C0,14.8,0,15.1,0,15.5c0,0.9,0.2,1.7,0.6,2.4c0.4,0.7,1,1.4,1.8,1.9c0.8,0.5,1.7,1,2.7,1.3c1.1,0.3,2.2,0.5,3.5,0.5h0.1
			c1.3,0,2.4-0.2,3.5-0.5c1-0.3,1.9-0.7,2.6-1.3c0.7-0.5,1.3-1.2,1.6-1.9c0.4-0.7,0.6-1.5,0.6-2.4c0-0.7-0.1-1.4-0.4-2
			C16.2,13,15.9,12.4,15.4,12z"/>
		<path fill="#9BAB2E" d="M99.9,12.2c-0.1-0.1-0.2-0.1-0.3-0.1c-0.2,0-0.4,0-0.5,0.1c-0.1,0.1-0.2,0.2-0.3,0.3
			c-0.1,0.3-0.2,0.6-0.4,1c-0.2,0.4-0.4,0.8-0.6,1.2c-0.2,0.4-0.5,0.8-0.7,1.2c-0.3,0.4-0.5,0.8-0.8,1.1c-0.3,0.3-0.5,0.6-0.8,0.8
			c-0.3,0.2-0.5,0.3-0.7,0.3c-0.2,0-0.3-0.1-0.5-0.3c-0.1-0.2-0.3-0.4-0.4-0.8c-0.1-0.3-0.2-0.7-0.3-1c-0.1-0.4-0.1-0.8-0.2-1.2
			c0-0.4-0.1-0.8-0.1-1.1c0-0.4,0-0.7,0-0.9v-0.5c0.5,0,0.9,0,1.2-0.1c0.3,0,0.5-0.1,0.7-0.1c0.2,0,0.4-0.1,0.6-0.3
			c0.2-0.1,0.3-0.3,0.5-0.5c0.1-0.2,0.2-0.4,0.3-0.6c0.1-0.2,0.1-0.4,0.1-0.6c0-0.2-0.1-0.4-0.2-0.6c-0.1-0.1-0.3-0.3-0.5-0.3
			c-0.2-0.1-0.5-0.1-0.8-0.2c-0.3,0-0.6,0-0.9,0c-0.1,0-0.2,0-0.3,0s-0.3,0-0.4,0c0-0.3,0.1-0.6,0.1-0.9c0-0.2,0.1-0.4,0.1-0.6
			c0-0.2,0.1-0.4,0.1-0.6c0-0.2,0-0.4,0-0.7c0-0.4-0.1-0.7-0.2-0.9c-0.1-0.2-0.2-0.4-0.4-0.6c-0.2-0.1-0.3-0.3-0.5-0.3
			c-0.2-0.1-0.4-0.1-0.6-0.1c-0.3,0-0.7,0.1-1,0.4c-0.3,0.3-0.6,0.6-0.9,1.1c-0.3,0.5-0.5,1-0.7,1.7c-0.2,0.7-0.3,1.4-0.4,2.2
			c-0.5,0.2-0.9,0.4-1.2,0.7c-0.3,0.3-0.5,0.6-0.5,1c0,0.3,0.1,0.5,0.4,0.7c0.3,0.1,0.7,0.2,1.2,0.2v0.2c-0.1,0.3-0.3,0.7-0.5,1.1
			c-0.2,0.4-0.4,0.8-0.7,1.3c-0.3,0.4-0.6,0.9-0.9,1.3c-0.3,0.4-0.7,0.8-1.1,1.2s-0.9,0.6-1.3,0.8c-0.5,0.2-1,0.3-1.5,0.3
			c-0.5,0-0.9-0.1-1.3-0.3c-0.4-0.2-0.6-0.4-0.9-0.7c-0.2-0.3-0.4-0.7-0.5-1c-0.1-0.4-0.2-0.8-0.2-1.2c0-0.5,0-0.9,0.1-1.4
			c0.1-0.5,0.2-0.9,0.4-1.2c0.2-0.4,0.4-0.6,0.7-0.9c0.3-0.2,0.6-0.3,0.9-0.3h0.1c0.2,0,0.3,0.1,0.3,0.1c0,0.1,0.1,0.1,0.1,0.2
			c0,0.1,0,0.2,0,0.3c0,0.1,0,0.2,0,0.3c0,0.2,0.1,0.4,0.3,0.6c0.2,0.2,0.5,0.3,0.9,0.3c0.2,0,0.5,0,0.7-0.1
			c0.2-0.1,0.4-0.2,0.6-0.4c0.2-0.2,0.3-0.3,0.4-0.6c0.1-0.2,0.1-0.5,0.1-0.7c0-0.2-0.1-0.5-0.2-0.8c-0.1-0.3-0.4-0.5-0.6-0.8
			c-0.3-0.2-0.6-0.4-1-0.6c-0.4-0.1-0.8-0.2-1.3-0.2c-0.7,0-1.3,0.1-1.9,0.3C80,9.6,79.5,9.9,79,10.2c-0.5,0.3-0.9,0.7-1.3,1.2
			c-0.2,0.3-0.5,0.6-0.6,0.9c-0.1,0.1-0.1,0.1-0.1,0.2c0,0,0,0.1-0.1,0.2c0,0-0.1,0.1-0.1,0.1c-0.1,0.2-0.2,0.4-0.2,0.6
			c0,0.1-0.1,0.1-0.1,0.2c-0.2,0.4-0.4,0.8-0.7,1.3c-0.3,0.4-0.6,0.9-0.9,1.3c-0.3,0.4-0.7,0.8-1.1,1.2s-0.9,0.6-1.3,0.8
			c-0.5,0.2-1,0.3-1.5,0.3c-0.4,0-0.8-0.1-1.1-0.2c-0.3-0.1-0.6-0.3-0.8-0.5c-0.2-0.2-0.4-0.5-0.5-0.8c-0.1-0.3-0.2-0.6-0.3-1
			c0.9-0.1,1.7-0.3,2.3-0.6c0.6-0.3,1.2-0.6,1.6-1c0.4-0.4,0.7-0.8,0.9-1.2c0.2-0.4,0.3-0.8,0.3-1.2c0-0.4-0.1-0.7-0.2-1.1
			c-0.1-0.3-0.4-0.6-0.6-0.9c-0.3-0.3-0.6-0.5-0.9-0.6c-0.4-0.2-0.7-0.2-1.1-0.2c-0.7,0-1.3,0.1-1.9,0.3c-0.6,0.2-1.1,0.4-1.6,0.8
			c-0.5,0.3-0.9,0.7-1.3,1.2c-0.3,0.3-0.5,0.6-0.7,1c0,0.1-0.1,0.1-0.1,0.2c0,0,0,0,0,0c0,0.1-0.1,0.2-0.1,0.2
			c-0.1,0.3-0.2,0.5-0.3,0.8c-0.2,0.3-0.3,0.7-0.6,1.1c-0.2,0.4-0.5,0.8-0.7,1.2c-0.3,0.4-0.5,0.8-0.8,1.1c-0.3,0.3-0.5,0.6-0.8,0.8
			c-0.3,0.2-0.5,0.3-0.7,0.3c-0.2,0-0.3,0-0.4-0.1c-0.1-0.1-0.2-0.2-0.2-0.4S60,17.3,60,17.1c0-0.2,0-0.4,0-0.7c0-0.8,0-1.6,0-2.3
			c0-0.7,0-1.3,0-1.8c0-0.3-0.1-0.6-0.3-0.8c-0.2-0.2-0.5-0.4-0.7-0.5c-0.3-0.1-0.6-0.3-0.9-0.3c-0.3-0.1-0.6-0.2-0.8-0.2
			c-0.5-0.1-0.9-0.2-1.2-0.3c-0.3-0.1-0.6-0.2-0.8-0.3c-0.2-0.1-0.4-0.2-0.4-0.3c-0.1-0.1-0.2-0.2-0.2-0.3c0-0.1-0.1-0.2-0.1-0.3
			c0-0.1,0-0.2,0-0.3c0-0.1,0-0.2,0-0.3c0-0.1,0-0.3,0-0.6c0-0.3,0-0.5-0.1-0.7c-0.1-0.2-0.2-0.4-0.3-0.6c-0.1-0.2-0.3-0.3-0.6-0.4
			c-0.2-0.1-0.5-0.1-0.9-0.1c-0.3,0-0.5,0.1-0.8,0.3c-0.2,0.2-0.5,0.4-0.6,0.7c-0.2,0.3-0.3,0.6-0.4,0.9s-0.2,0.7-0.2,1
			c0,0.4,0.1,0.8,0.2,1.2c0.2,0.4,0.4,0.7,0.7,1c0,0,0.1,0.1,0.1,0.2c0,0.1,0.1,0.2,0.1,0.4c0,0.1,0,0.2,0,0.3c0,0.1,0,0.2-0.1,0.4
			c0,0,0,0.1,0,0.2c0,0,0,0,0,0c-0.1,0.3-0.2,0.6-0.4,1c-0.2,0.4-0.4,0.8-0.6,1.2c-0.2,0.4-0.5,0.8-0.7,1.2
			c-0.3,0.4-0.5,0.8-0.8,1.1c-0.3,0.3-0.5,0.6-0.8,0.8c-0.3,0.2-0.5,0.3-0.7,0.3c-0.2,0-0.3,0-0.4-0.1c-0.1-0.1-0.2-0.2-0.2-0.4
			c0-0.2-0.1-0.3-0.1-0.5c0-0.2,0-0.4,0-0.7c0-0.4,0-0.7,0-1c0-0.2,0-0.4,0-0.6c0-0.2,0-0.3,0-0.5c0-0.1,0-0.3,0-0.6
			c0-0.3-0.1-0.7-0.3-0.9c-0.2-0.3-0.4-0.5-0.7-0.7c-0.3-0.2-0.6-0.3-1-0.4s-0.7-0.1-1-0.2c-0.1-1.7-1.3-2.6-3.5-2.6
			c-0.8,0-1.6,0.2-2.3,0.6c-0.7,0.4-1.3,1-1.9,1.8c-0.2,0.3-0.4,0.6-0.5,0.9c0,0,0,0.1,0,0.1c0,0,0,0,0,0c-0.1,0.3-0.3,0.6-0.4,0.9
			c0,0,0,0,0,0c-0.2,0.4-0.4,0.8-0.6,1.2c-0.2,0.4-0.5,0.8-0.7,1.2c-0.3,0.4-0.5,0.8-0.8,1.1s-0.5,0.6-0.8,0.8
			c-0.3,0.2-0.5,0.3-0.7,0.3c-0.2,0-0.3,0-0.4-0.1c-0.1-0.1-0.2-0.2-0.2-0.4s-0.1-0.3-0.1-0.5c0-0.2,0-0.4,0-0.7
			c0-1.2,0-2.2-0.1-3.1c-0.1-0.9-0.3-1.7-0.5-2.3c-0.3-0.6-0.6-1.1-1-1.4c-0.4-0.3-1-0.5-1.7-0.5c-0.8,0-1.4,0.1-2,0.4
			c-0.6,0.3-1,0.6-1.4,1c-0.4,0.4-0.7,0.9-1,1.5c-0.3,0.6-0.5,1.1-0.7,1.7c0-1.5,0.1-2.8,0.1-3.9s0-2.1,0-3c0-1.1,0-2,0-2.7
			c0-0.7-0.1-1.3-0.2-1.7c-0.1-0.4-0.2-0.7-0.3-0.8c-0.1-0.1-0.3-0.2-0.4-0.2c-0.1,0-0.3,0-0.5,0c-0.2,0-0.4,0.1-0.6,0.1
			c-0.2,0.1-0.5,0.1-0.7,0.2c-0.2,0.1-0.4,0.2-0.6,0.3c-0.2,0.1-0.4,0.3-0.5,0.5c-0.1,0.2-0.2,0.4-0.2,0.6c0,0.1,0,0.2,0,0.3
			c0,0.1,0,0.4,0,0.7c0,0.3,0,0.8,0,1.4c0,0.6,0,1.5-0.1,2.5c0,1.1,0,2.4-0.1,3.9c0,1.6-0.1,3.5-0.1,5.7c0,0.2,0,0.5,0,0.8
			c0,0.3,0,0.6,0,0.9c0,0.3,0,0.5,0,0.8c0,0.2,0,0.4,0,0.5c0,0.2,0,0.3,0.1,0.5c0.1,0.1,0.2,0.2,0.3,0.3c0.1,0.1,0.3,0.1,0.4,0.2
			c0.2,0,0.3,0.1,0.5,0.1c0.4,0,0.7,0,1-0.1c0.3-0.1,0.5-0.2,0.8-0.3c0.2-0.1,0.4-0.3,0.5-0.4c0.1-0.2,0.3-0.3,0.3-0.5l0-0.1
			c0.1-0.2,0.2-0.5,0.3-0.8c0.1-0.3,0.2-0.7,0.3-1.1c0.1-0.4,0.3-0.8,0.4-1.3c0.1-0.4,0.3-0.9,0.5-1.3s0.3-0.9,0.5-1.3
			c0.2-0.4,0.4-0.8,0.5-1.1c0.2-0.3,0.4-0.5,0.6-0.7c0.2-0.2,0.4-0.3,0.6-0.3c0.2,0,0.3,0.1,0.5,0.2c0.1,0.1,0.2,0.3,0.3,0.5
			c0.1,0.2,0.1,0.4,0.2,0.7c0,0.3,0,0.5,0,0.7v0.9c0,1.1,0,2,0.1,2.8c0.1,0.8,0.2,1.4,0.4,1.9c0.2,0.5,0.5,0.8,1,1.1s1,0.3,1.6,0.3
			c0.6,0,1.1-0.2,1.6-0.5c0.5-0.3,1-0.7,1.5-1.2c0.5-0.5,0.9-1.1,1.3-1.7c0.1-0.2,0.2-0.4,0.3-0.6c0,0.6,0.1,1.2,0.3,1.6
			c0.2,0.5,0.5,1,0.9,1.3c0.4,0.4,0.8,0.6,1.2,0.8c0.5,0.2,0.9,0.2,1.3,0.2c1,0,1.9-0.3,2.6-0.8c0.7-0.5,1.3-1.3,1.7-2.4
			c0.1,0.6,0.2,1,0.3,1.4c0.1,0.4,0.3,0.7,0.6,1c0.2,0.3,0.5,0.5,0.9,0.6c0.4,0.1,0.8,0.2,1.3,0.2c0.6,0,1.1-0.2,1.6-0.5
			c0.5-0.3,1-0.7,1.5-1.2c0.5-0.5,0.9-1.1,1.3-1.7c0.4-0.6,0.7-1.3,1.1-1.9c0.3-0.7,0.6-1.3,0.8-1.9c0.2-0.6,0.4-1.2,0.6-1.6
			c0,0,0-0.1,0-0.1c0.1-0.2,0.1-0.3,0.2-0.5c0.1-0.4,0.2-0.6,0.3-0.9c0.5,0.1,0.9,0.2,1.2,0.3c0.3,0.1,0.5,0.3,0.7,0.5
			c0.2,0.2,0.3,0.5,0.3,0.8c0.1,0.3,0.1,0.7,0.1,1.2v1.6c0,1.1,0,2,0.1,2.8c0.1,0.8,0.2,1.4,0.4,1.9c0.2,0.5,0.5,0.8,1,1.1
			c0.4,0.2,1,0.3,1.6,0.3c0.6,0,1.1-0.2,1.6-0.5c0.5-0.3,1-0.7,1.5-1.2c0.5-0.5,0.9-1.1,1.3-1.7c0.2-0.3,0.4-0.7,0.6-1
			c0.1,0.3,0.1,0.6,0.2,1c0.2,0.7,0.5,1.2,1,1.7c0.5,0.5,1.1,0.9,1.8,1.2c0.8,0.3,1.7,0.5,2.7,0.5c0.8,0,1.5-0.1,2.1-0.4
			c0.7-0.3,1.3-0.7,1.8-1.2c0.6-0.5,1.1-1,1.5-1.7c0.3-0.4,0.6-0.9,0.9-1.3c0.1,0.4,0.1,0.8,0.3,1.2c0.2,0.7,0.5,1.2,1,1.7
			c0.5,0.5,1.1,0.9,1.8,1.2c0.8,0.3,1.7,0.5,2.7,0.5c0.8,0,1.5-0.1,2.1-0.4c0.7-0.3,1.3-0.7,1.8-1.2c0.6-0.5,1.1-1,1.5-1.7
			c0.5-0.6,0.9-1.3,1.2-1.9c0.2-0.3,0.4-0.7,0.5-1c0,0.1,0,0.2,0,0.3c0,0.6,0.1,1.2,0.2,1.8c0.1,0.6,0.3,1.1,0.4,1.6
			c0.2,0.5,0.4,0.9,0.7,1.3c0.3,0.4,0.6,0.7,1,0.9c0.4,0.2,0.9,0.3,1.4,0.3c0.6,0,1.1-0.2,1.6-0.5c0.5-0.3,1-0.7,1.5-1.2
			c0.5-0.5,0.9-1.1,1.3-1.7c0.4-0.6,0.7-1.3,1.1-1.9c0.3-0.7,0.6-1.3,0.8-1.9c0.2-0.6,0.4-1.2,0.6-1.6c0,0,0-0.1,0-0.1
			c0,0,0-0.1,0-0.1C100,12.3,100,12.2,99.9,12.2z M43.2,13.7c-0.1,0.4-0.2,0.7-0.3,1.1c0,0.1,0,0.1,0,0.1c-0.1,0.6-0.3,1.1-0.5,1.6
			c-0.2,0.5-0.5,0.9-0.8,1.2c-0.3,0.3-0.6,0.6-0.9,0.8c-0.3,0.2-0.6,0.3-0.8,0.3c-0.2,0-0.3,0-0.4-0.1c-0.1-0.1-0.2-0.2-0.3-0.3
			s-0.1-0.3-0.2-0.5c0-0.2-0.1-0.4-0.1-0.6c0-0.6,0.1-1.2,0.2-1.8c0.1-0.6,0.4-1.1,0.7-1.6c0.3-0.5,0.7-0.9,1.1-1.2
			c0.5-0.3,1-0.5,1.7-0.5c0.1,0,0.3,0,0.4,0.1c0.1,0,0.2,0.1,0.2,0.1c0.1,0,0.1,0.1,0.2,0.1c0.1,0,0.1,0.1,0.2,0.1
			C43.5,13,43.3,13.4,43.2,13.7z M68.3,13.5c0.1-0.4,0.2-0.8,0.4-1.1c0.2-0.3,0.4-0.6,0.6-0.8c0.3-0.2,0.5-0.3,0.9-0.3
			c0.3,0,0.6,0.1,0.7,0.2c0.1,0.2,0.2,0.4,0.2,0.6c0,0.3-0.1,0.6-0.2,0.9c-0.2,0.3-0.4,0.6-0.7,0.8c-0.3,0.2-0.6,0.4-1,0.6
			c-0.4,0.1-0.7,0.2-1.1,0.3C68.1,14.3,68.2,13.9,68.3,13.5z"/>
	</g>
	<g>
		<path fill="#9BAB2E" d="M4.6,4.9C4.2,4,5.6,3.5,5.9,3.1C5,3.4,4.4,3.2,3.8,2.4C3.4,1.8,3,1.1,2.5,0.4C2.1-0.1,1.6-0.1,1.2,0.3
			C0.5,0.9,0.1,1.7,0,2.7c0,0.5,0.2,0.7,0.6,0.8c0.5,0.1,1,0.1,1.4,0.1c0.8,0,1.4,0.3,2,0.8C4.4,4.8,4.6,5,4.6,5.3l0.2,0.1
			C4.7,5.2,4.7,5,4.6,4.9z"/>
	</g>
	<path fill="#9BAB2E" d="M17,0.4c-0.3-0.5-0.8-0.6-1.2-0.1c-0.3,0.2-0.4,0.6-0.7,0.8c-0.5,0.5-1,1-1.5,1.4c-0.5,0.4-1,0.2-1.2-0.2
		l-0.1,0.2c0.2,0.4,1.2,1.2,0.9,2.1l0.2,0c0.1-0.4,0.4-0.7,1-0.9c0.4-0.2,0.9-0.2,1.3-0.2c0.5,0,0.9,0,1.4,0.1
		c0.4,0,0.6-0.2,0.6-0.6C17.6,2,17.5,1.2,17,0.4z"/>
</g>
</svg>
